<svg width="20" height="20" fill="none" xmlns="http://www.w3.org/2000/svg"><path d="M11.696 12.988l-1.139 1.193a.53.53 0 01-.678.078l-.007-.007a14.113 14.113 0 01-3.926-4.112l-.01-.012a.597.597 0 01.073-.712l1.139-1.193a1.46 1.46 0 00.014-2.018L5.353 4.31a1.323 1.323 0 00-1.932-.01l-.476.498c-1.947 2.04-2.253 5.213-.728 7.543l.705 1.076a15.07 15.07 0 003.817 3.999l1.026.737c2.224 1.599 5.252 1.278 7.2-.762l.467-.49a1.48 1.48 0 00.008-2.024l-1.817-1.904c-.536-.56-1.383-.555-1.927.015zm3.085 2.56c.178.18.183.476.011.662l-.01.011-.467.489c-1.634 1.713-4.17 1.986-6.03.65l-1.026-.738a14.122 14.122 0 01-3.58-3.75l-.704-1.075c-1.276-1.948-1.015-4.605.62-6.318l.467-.489a.432.432 0 01.631-.01l1.82 1.906c.176.185.17.462-.015.657L5.36 8.735a1.596 1.596 0 00-.184 1.934 15.048 15.048 0 004.18 4.378.309.309 0 01.013.012 1.422 1.422 0 001.838-.198l1.138-1.192c.186-.195.45-.2.628-.015l1.808 1.895zM8.752 1.32a.47.47 0 00.465.477c2.33-.029 4.508.893 6.134 2.597 1.626 1.704 2.507 3.986 2.48 6.426a.471.471 0 00.451.49.47.47 0 00.467-.474v-.005c.03-2.701-.945-5.229-2.748-7.117-1.803-1.89-4.216-2.912-6.795-2.88a.471.471 0 00-.454.487z" fill="#fff"/><path d="M9.171 3.966a.456.456 0 00-.399.242.501.501 0 00.004.483c.084.149.237.24.402.237h.004c3.072-.056 5.607 2.509 5.66 5.728v.201a.472.472 0 00.451.49.47.47 0 00.467-.474v-.005c.06-3.75-2.795-6.84-6.375-6.902a5.707 5.707 0 00-.214 0z" fill="#fff"/><path d="M11.696 12.988l-1.139 1.193a.53.53 0 01-.678.078l-.007-.007a14.113 14.113 0 01-3.926-4.112l-.01-.012a.597.597 0 01.073-.712l1.139-1.193a1.46 1.46 0 00.014-2.018L5.353 4.31a1.323 1.323 0 00-1.932-.01l-.476.498c-1.947 2.04-2.253 5.213-.728 7.543l.705 1.076a15.07 15.07 0 003.817 3.999l1.026.737c2.224 1.599 5.252 1.278 7.2-.762l.467-.49a1.48 1.48 0 00.008-2.024l-1.817-1.904c-.536-.56-1.383-.555-1.927.015zm3.085 2.56c.178.18.183.476.011.662l-.01.011-.467.489c-1.634 1.713-4.17 1.986-6.03.65l-1.026-.738a14.122 14.122 0 01-3.58-3.75l-.704-1.075c-1.276-1.948-1.015-4.605.62-6.318l.467-.489a.432.432 0 01.631-.01l1.82 1.906c.176.185.17.462-.015.657L5.36 8.735a1.596 1.596 0 00-.184 1.934 15.048 15.048 0 004.18 4.378.309.309 0 01.013.012 1.422 1.422 0 001.838-.198l1.138-1.192c.186-.195.45-.2.628-.015l1.808 1.895zM8.752 1.32a.47.47 0 00.465.477c2.33-.029 4.508.893 6.134 2.597 1.626 1.704 2.507 3.986 2.48 6.426a.471.471 0 00.451.49.47.47 0 00.467-.474v-.005c.03-2.701-.945-5.229-2.748-7.117-1.803-1.89-4.216-2.912-6.795-2.88a.471.471 0 00-.454.487z" stroke="#fff" stroke-width=".7"/><path d="M9.171 3.966a.456.456 0 00-.399.242.501.501 0 00.004.483c.084.149.237.24.402.237h.004c3.072-.056 5.607 2.509 5.66 5.728v.201a.472.472 0 00.451.49.47.47 0 00.467-.474v-.005c.06-3.75-2.795-6.84-6.375-6.902a5.707 5.707 0 00-.214 0z" stroke="#fff" stroke-width=".7"/></svg>