<svg width="16" height="16" fill="none" xmlns="http://www.w3.org/2000/svg"><path d="M10.913 14.93H5.087c-2.205 0-4-1.794-4-4V5.07c0-2.205 1.795-4 4-4h5.826c2.205 0 4 1.795 4 4v5.862c0 2.205-1.795 4-4 4zM5.087 2.713a2.359 2.359 0 00-2.356 2.356v5.862a2.359 2.359 0 002.356 2.356h5.826a2.359 2.359 0 002.356-2.356V5.069c0-1.3-1.057-2.356-2.356-2.356H5.087z" fill="#000"/><path d="M8 11.43A3.433 3.433 0 014.57 8c0-1.89 1.54-3.43 3.43-3.43 1.89 0 3.43 1.54 3.43 3.43 0 1.89-1.54 3.43-3.43 3.43zm0-5.256c-1.007 0-1.826.82-1.826 1.826 0 1.007.82 1.826 1.826 1.826 1.007 0 1.826-.82 1.826-1.826 0-1.007-.82-1.826-1.826-1.826zm3.51-1.079a.606.606 0 11.001-1.212.606.606 0 01-.001 1.212z" fill="#000"/><path d="M10.913 15.218H5.087A4.292 4.292 0 01.8 10.93V5.069A4.292 4.292 0 015.087.782h5.826A4.292 4.292 0 0115.2 5.069v5.862a4.292 4.292 0 01-4.287 4.287zM5.087 1.357a3.716 3.716 0 00-3.712 3.712v5.862a3.716 3.716 0 003.712 3.712h5.826a3.716 3.716 0 003.712-3.712V5.069a3.716 3.716 0 00-3.712-3.712H5.087zm5.826 12.217H5.087a2.647 2.647 0 01-2.643-2.643V5.069a2.646 2.646 0 012.643-2.644h5.826a2.646 2.646 0 012.643 2.644v5.862a2.646 2.646 0 01-2.643 2.643zM5.087 3A2.07 2.07 0 003.02 5.07v5.862A2.07 2.07 0 005.088 13h5.826a2.07 2.07 0 002.068-2.068V5.069A2.07 2.07 0 0010.913 3H5.087z" fill="#000"/><path d="M8 11.717A3.721 3.721 0 014.283 8 3.721 3.721 0 018 4.283 3.721 3.721 0 0111.717 8 3.721 3.721 0 018 11.717zm0-6.859A3.145 3.145 0 004.858 8 3.145 3.145 0 008 11.142 3.145 3.145 0 0011.142 8 3.145 3.145 0 008 4.858zm0 5.256A2.116 2.116 0 015.886 8c0-1.165.949-2.114 2.114-2.114s2.114.949 2.114 2.114A2.116 2.116 0 018 10.114zm0-3.652A1.54 1.54 0 006.462 8c0 .848.69 1.538 1.538 1.538A1.54 1.54 0 009.538 8 1.54 1.54 0 008 6.462z" fill="#000"/><path d="M11.51 5.383a.894.894 0 010-1.786.894.894 0 010 1.786zm0-1.211a.318.318 0 100 .636.318.318 0 000-.636zm-3.97 10.24H4.837a.288.288 0 110-.575H7.54a.288.288 0 110 .575zm1.093 0H8.46a.288.288 0 110-.575h.173a.288.288 0 110 .575z" fill="#000"/></svg>