<svg width="16" height="16" fill="none" xmlns="http://www.w3.org/2000/svg"><rect width="16" height="16" rx="8" fill="#E6514A"/><path d="M12.022 10.45l-1.3-1.303a.677.677 0 00-.957.018l-.655.656a18.792 18.792 0 01-.13-.072c-.413-.23-.98-.545-1.575-1.142-.598-.6-.912-1.168-1.142-1.583l-.07-.126.439-.44.216-.217a.68.68 0 00.018-.959L5.565 3.98a.676.676 0 00-.956.018l-.367.37.01.01a2.126 2.126 0 00-.302.533c-.07.186-.114.364-.134.542-.172 1.427.479 2.73 2.244 4.5 2.44 2.446 4.408 2.261 4.492 2.252a2.19 2.19 0 001.073-.438l.008.007.371-.364c.268-.27.276-.7.018-.959z" fill="#fff"/></svg>