<svg width="16" height="16" xmlns="http://www.w3.org/2000/svg"><g clip-path="url(#clip0_2121_167)"><path d="M13.54 9.181c.51.498 1.048.966 1.505 1.513a4.4 4.4 0 01.539.777c.207.402.02.844-.34.868l-2.239-.001c-.577.048-1.037-.185-1.425-.58-.31-.315-.596-.651-.894-.977a2.117 2.117 0 00-.403-.358c-.305-.199-.57-.138-.745.18-.178.325-.218.684-.236 1.045-.024.527-.183.665-.712.69-1.132.053-2.205-.118-3.203-.689-.88-.503-1.561-1.213-2.155-2.017C2.077 8.066 1.192 6.345.397 4.577c-.18-.399-.048-.613.391-.62.73-.014 1.46-.013 2.191-.001.297.004.493.174.608.455.395.97.878 1.895 1.485 2.751.162.228.326.457.56.617.26.178.458.119.58-.17a1.91 1.91 0 00.129-.577c.058-.676.065-1.35-.036-2.023-.062-.42-.299-.692-.718-.772-.214-.04-.182-.12-.079-.242.18-.21.35-.342.687-.342h2.529c.398.079.487.258.541.658l.002 2.81c-.004.155.078.615.357.718.224.073.371-.106.505-.248.606-.642 1.038-1.402 1.424-2.188.171-.346.319-.705.461-1.064.106-.267.272-.398.572-.392l2.434.002c.073 0 .146.001.216.013.41.07.522.247.396.647-.2.629-.588 1.152-.968 1.679-.406.561-.84 1.104-1.243 1.669-.37.516-.34.776.12 1.224z"/><path d="M8.21 12.665c-1.135 0-2.113-.243-2.981-.74-.826-.472-1.542-1.14-2.253-2.104-1.01-1.369-1.895-2.946-2.87-5.114-.136-.303-.141-.559-.014-.76.127-.2.36-.303.69-.31a60.593 60.593 0 012.202 0c.41.006.728.238.898.653a13.175 13.175 0 001.45 2.688c.141.2.287.405.48.538h.002a.07.07 0 00.104-.03v-.001c.054-.128.088-.28.105-.482.065-.75.054-1.368-.033-1.947-.044-.298-.187-.454-.463-.506-.078-.015-.316-.06-.396-.286-.08-.224.076-.406.134-.475.202-.237.454-.455.93-.455h2.529c.02 0 .04.002.059.006.637.124.743.527.798.928a.321.321 0 01.003.043l.002 2.81v.009a.735.735 0 00.038.218.146.146 0 00.246.053l.028-.029c.613-.65 1.036-1.432 1.369-2.11.174-.351.324-.722.452-1.041.158-.4.45-.6.87-.593l2.432.003c.084 0 .174 0 .268.017.195.033.47.105.619.349.148.243.087.52.027.708-.207.654-.595 1.19-.97 1.71l-.043.059c-.192.266-.392.53-.586.786-.218.287-.444.585-.655.882-.142.197-.203.33-.194.42.009.092.097.216.276.39.133.13.271.262.405.388.38.36.773.733 1.121 1.15.192.231.41.51.578.835.16.312.163.664.006.942a.75.75 0 01-.63.39h-2.225c-.62.047-1.18-.18-1.665-.675a19.55 19.55 0 01-.618-.67 40.38 40.38 0 00-.285-.317 1.843 1.843 0 00-.34-.305c-.073-.047-.138-.07-.175-.06-.035.008-.079.056-.118.127-.139.253-.18.546-.197.906-.03.682-.316.96-1.016.993-.133.006-.264.01-.394.01zM.64 4.295a.542.542 0 00.048.15c.956 2.126 1.82 3.666 2.802 4.997.657.89 1.31 1.503 2.056 1.93.858.491 1.849.702 3.03.647.245-.011.319-.048.34-.069.018-.016.058-.079.069-.317.019-.389.065-.801.274-1.183.162-.295.373-.401.521-.439.15-.038.389-.043.678.144.192.125.342.278.464.41.098.107.195.216.29.322.193.216.393.44.597.648.36.367.733.521 1.171.485a.328.328 0 01.026-.001h2.225c.02-.002.057-.012.088-.066.038-.066.056-.194-.018-.336a4.147 4.147 0 00-.5-.72c-.324-.387-.687-.73-1.07-1.094-.136-.128-.276-.26-.412-.394-.578-.564-.619-.992-.156-1.638.217-.304.445-.605.666-.897.192-.252.39-.514.578-.773l.043-.06c.36-.5.702-.973.879-1.528a.506.506 0 00.034-.183.515.515 0 00-.18-.054 1.038 1.038 0 00-.162-.008l-2.434-.002h-.006c-.143-.003-.203.024-.27.19a14.66 14.66 0 01-.471 1.088c-.354.72-.806 1.553-1.478 2.266l-.025.027c-.143.152-.409.436-.811.305a.442.442 0 01-.01-.004c-.442-.162-.572-.754-.567-1.021l-.002-2.784c-.014-.1-.037-.226-.077-.28-.01-.013-.038-.05-.178-.081H6.195a.499.499 0 00-.24.048c.366.166.598.491.665.942.095.628.107 1.295.039 2.096-.025.27-.073.485-.153.674-.125.295-.31.403-.443.443-.133.039-.347.047-.61-.133-.288-.197-.484-.474-.641-.696a13.802 13.802 0 01-1.52-2.816c-.091-.223-.212-.254-.317-.256a59.968 59.968 0 00-2.18.001.547.547 0 00-.156.02z"/><path d="M2.04 5.763a.319.319 0 01-.284-.175 34.568 34.568 0 01-.142-.283.319.319 0 11.571-.283l.14.279a.319.319 0 01-.285.462z"/></g><defs><clipPath id="clip0_2121_167"><path d="M0 0h16v16H0z"/></clipPath></defs></svg>